<svg width="32" height="29" xmlns="http://www.w3.org/2000/svg"><g fill="#FFF" fill-rule="nonzero"><path d="M24 29c-1.654 0-3-1.346-3-3s1.346-3 3-3 3 1.346 3 3-1.346 3-3 3zm0-4.952A1.954 1.954 0 0 0 22.048 26c0 1.076.876 1.952 1.952 1.952A1.954 1.954 0 0 0 25.952 26 1.954 1.954 0 0 0 24 24.048zM12 29c-1.654 0-3-1.346-3-3s1.346-3 3-3 3 1.346 3 3-1.346 3-3 3zm0-4.952A1.954 1.954 0 0 0 10.048 26c0 1.076.876 1.952 1.952 1.952A1.954 1.954 0 0 0 13.952 26 1.954 1.954 0 0 0 12 24.048zM24.587 21h-.001l-14.433-.006a2.528 2.528 0 0 1-2.474-2.055L5.01 4.63a.534.534 0 0 1 .113-.437A.526.526 0 0 1 5.527 4h24.95c.502 0 .972.25 1.256.667.285.417.346.948.164 1.42L26.94 19.375A2.538 2.538 0 0 1 24.587 21zM6.162 5.06l2.554 13.68a1.47 1.47 0 0 0 1.437 1.193l14.433.006h.001c.6 0 1.15-.379 1.367-.943l4.958-13.288a.47.47 0 0 0-.435-.647H6.162z"/><path d="M5.475 5a.52.52 0 0 1-.51-.384l-.63-2.551C4.179 1.436 3.596.997 2.917.997H.524A.512.512 0 0 1 0 .498C0 .223.235 0 .524 0h2.393c1.168 0 2.17.755 2.438 1.837l.631 2.55a.498.498 0 0 1-.39.6.544.544 0 0 1-.12.013zM15.457 9H6.543C6.243 9 6 8.776 6 8.5s.243-.5.543-.5h8.914c.3 0 .543.224.543.5s-.243.5-.543.5z"/></g></svg>