<svg width="27px" height="28px" viewBox="0 0 27 28" version="1.1" xmlns="http://www.w3.org/2000/svg" xmlns:xlink="http://www.w3.org/1999/xlink">
    <!-- Generator: Sketch 50.2 (55047) - http://www.bohemiancoding.com/sketch -->
    <desc>Created with Sketch.</desc>
    <defs></defs>
    <g id="Page-1" stroke="none" stroke-width="1" fill="none" fill-rule="evenodd">
        <g id="Контакты" transform="translate(-129.000000, -294.000000)" fill="#FFFFFF" fill-rule="nonzero">
            <g id="phone-call" transform="translate(129.000000, 293.000000)">
                <path d="M22.7289583,17.6908602 C22.1396396,17.0573477 21.4288119,16.718638 20.675456,16.718638 C19.9281756,16.718638 19.2112724,17.0510753 18.5976519,17.6845878 L16.6778095,19.6603943 C16.5198478,19.5725806 16.3618861,19.4910394 16.2099998,19.4094982 C15.9912836,19.296595 15.7847183,19.1899642 15.6085302,19.0770609 C13.8101969,17.8978495 12.1759007,16.3611111 10.6084344,14.3727599 C9.84900311,13.3817204 9.33866527,12.547491 8.96806278,11.7007168 C9.46624973,11.2302867 9.92798397,10.7410394 10.3775673,10.2706093 C10.5476799,10.0949821 10.7177925,9.91308244 10.8879052,9.7374552 C12.1637498,8.4202509 12.1637498,6.71415771 10.8879052,5.39695341 L9.22930716,3.68458781 C9.04096819,3.49014337 8.84655377,3.28942652 8.66429026,3.08870968 C8.29976322,2.69982079 7.91700984,2.2983871 7.52210555,1.92204301 C6.93278685,1.31989247 6.22803459,1 5.48682962,1 C4.74562465,1 4.02872149,1.31989247 3.42117643,1.92204301 C3.41510098,1.92831541 3.41510098,1.92831541 3.40902553,1.93458781 L1.34337235,4.08602151 C0.565714679,4.88888889 0.122206789,5.86738351 0.0249995803,7.00268817 C-0.120811233,8.83422939 0.401677514,10.5403226 0.80265725,11.65681 C1.78688024,14.3978495 3.25713927,16.938172 5.45037692,19.6603943 C8.11142426,22.9408602 11.3131867,25.531362 14.9706079,27.3566308 C16.3679615,28.0403226 18.2331249,28.8494624 20.3170044,28.9874552 C20.4445889,28.9937276 20.5782488,29 20.6997578,29 C22.1031869,29 23.2818243,28.4793907 24.2052927,27.4444444 C24.2113682,27.4318996 24.2235191,27.4256272 24.2295946,27.4130824 C24.545518,27.0179211 24.910045,26.6603943 25.2927984,26.2777778 C25.5540428,26.0206093 25.8213626,25.7508961 26.082607,25.468638 C26.6840766,24.8225806 27,24.0698925 27,23.2983871 C27,22.5206093 26.6780011,21.7741935 26.0643806,21.1469534 L22.7289583,17.6908602 Z M24.9039696,24.2956989 C24.8978941,24.2956989 24.8978941,24.3019713 24.9039696,24.2956989 C24.667027,24.5591398 24.424009,24.797491 24.1627646,25.0609319 C23.7678603,25.4498208 23.3668806,25.8575269 22.9902026,26.3154122 C22.3765821,26.9928315 21.6536035,27.312724 20.7058332,27.312724 C20.6147015,27.312724 20.5174943,27.312724 20.4263625,27.3064516 C18.6219537,27.187276 16.9451293,26.4596774 15.6875111,25.8387097 C12.2488061,24.1200717 9.22930716,21.6801075 6.72014608,18.5878136 C4.64841745,16.0098566 3.26321472,13.6263441 2.34582169,11.0672043 C1.78080479,9.50537634 1.57423947,8.28853047 1.66537123,7.140681 C1.72612573,6.40681004 1.99952101,5.7983871 2.5037834,5.27777778 L4.57551204,3.13888889 C4.87320912,2.85035842 5.18913254,2.69354839 5.49898052,2.69354839 C5.88173391,2.69354839 6.19158188,2.93189964 6.3859963,3.13261649 C6.39207175,3.13888889 6.3981472,3.14516129 6.40422265,3.15143369 C6.77482514,3.50896057 7.12720127,3.87903226 7.49780375,4.27419355 C7.68614272,4.47491039 7.88055713,4.67562724 8.07497155,4.88261649 L9.73356955,6.59498208 C10.3775673,7.25985663 10.3775673,7.87455197 9.73356955,8.53942652 C9.55738149,8.72132616 9.38726887,8.90322581 9.2110808,9.07885305 C8.70074296,9.61827957 8.21470691,10.1200717 7.68614272,10.609319 C7.67399182,10.6218638 7.66184092,10.6281362 7.65576546,10.640681 C7.13327672,11.1801075 7.23048393,11.7069892 7.33984204,12.0645161 C7.34591749,12.0833333 7.35199294,12.1021505 7.35806839,12.1209677 C7.78942538,13.1998208 8.39697043,14.2159498 9.32043891,15.4265233 L9.32651436,15.4327957 C11.0033387,17.5654122 12.7712948,19.2275986 14.7215144,20.5008961 C14.9706079,20.6639785 15.2257768,20.7956989 15.4687949,20.921147 C15.6875111,21.0340502 15.8940764,21.140681 16.0702645,21.2535842 C16.0945663,21.266129 16.1188681,21.2849462 16.1431699,21.297491 C16.3497352,21.4041219 16.5441496,21.4543011 16.7446395,21.4543011 C17.2489019,21.4543011 17.5648253,21.1281362 17.668108,21.0215054 L19.745912,18.8763441 C19.9524774,18.6630824 20.2805517,18.405914 20.6633051,18.405914 C21.039983,18.405914 21.349831,18.6505376 21.53817,18.8637993 C21.5442454,18.8700717 21.5442454,18.8700717 21.5503209,18.8763441 L24.8978941,22.3324373 C25.5236655,22.9722222 25.5236655,23.6308244 24.9039696,24.2956989 Z" id="Shape"></path>
            </g>
        </g>
    </g>
</svg>