<svg width="27" height="25" xmlns="http://www.w3.org/2000/svg"><g fill="#FFF" fill-rule="nonzero"><path d="M26.98 9.448c0-.04-.01-.101-.026-.136a.683.683 0 0 0-.271-.38l-3.865-2.663V3.415a.688.688 0 0 0-.692-.686H17.68L13.896.123A.696.696 0 0 0 13.11.12L9.3 2.73H4.874a.688.688 0 0 0-.691.686v2.82L.299 8.895A.682.682 0 0 0 0 9.45L0 9.461l.02 14.855c0 .181.074.356.204.484s.305.2.488.2h.001l25.596-.035A.688.688 0 0 0 27 24.28l-.02-14.83zm-4.162-1.51l2.21 1.522-2.21 1.522V7.938zM13.5 1.52l1.756 1.21h-3.523l1.767-1.21zM5.565 4.1h15.87v7.836l-5.328 3.67-2.173-1.67-.01-.006a.696.696 0 0 0-.837.007l-2.188 1.682-5.334-3.653V4.1zM4.183 7.902v3.117L1.907 9.46 4.183 7.9zm-2.798 2.867L9.752 16.5l-8.35 6.419-.017-12.15zm1.35 12.859l10.775-8.283 10.737 8.253-21.511.03zm14.517-7.141l8.346-5.75.017 12.18-8.363-6.43z"/><path d="M18.292 7H8.708C8.317 7 8 7.224 8 7.5s.317.5.708.5h9.584c.391 0 .708-.224.708-.5s-.317-.5-.708-.5zM18.292 11H8.708c-.391 0-.708.224-.708.5s.317.5.708.5h9.584c.391 0 .708-.224.708-.5s-.317-.5-.708-.5z"/></g></svg>