<svg width="29" height="29" xmlns="http://www.w3.org/2000/svg"><g fill="#FFF" fill-rule="nonzero"><path d="M22.729 17.69c-.59-.633-1.3-.971-2.054-.971-.747 0-1.464.332-2.077.966l-1.92 1.975c-.158-.087-.316-.169-.468-.25-.219-.113-.425-.22-.601-.333-1.799-1.18-3.433-2.716-5-4.704-.76-.991-1.27-1.826-1.64-2.672.497-.47.959-.96 1.409-1.43.17-.176.34-.358.51-.534 1.276-1.317 1.276-3.023 0-4.34L9.229 3.685a25.765 25.765 0 0 1-.565-.596c-.364-.39-.747-.79-1.142-1.167C6.932 1.32 6.228 1 5.487 1c-.741 0-1.458.32-2.066.922l-.012.013-2.066 2.151A4.653 4.653 0 0 0 .025 7.003c-.146 1.831.377 3.537.778 4.654.984 2.74 2.454 5.281 4.647 8.003 2.661 3.28 5.863 5.871 9.52 7.697 1.398.683 3.263 1.492 5.347 1.63.128.007.261.013.383.013 1.403 0 2.582-.52 3.505-1.556.006-.012.019-.018.025-.03.316-.396.68-.754 1.063-1.136.261-.257.528-.527.79-.81.601-.645.917-1.398.917-2.17 0-.777-.322-1.524-.936-2.151l-3.335-3.456zm2.175 6.606c-.006 0-.006.006 0 0-.237.263-.48.501-.741.765-.395.389-.796.797-1.173 1.254-.613.678-1.336.998-2.284.998-.091 0-.189 0-.28-.007-1.804-.119-3.48-.846-4.738-1.467-3.44-1.719-6.459-4.159-8.968-7.251-2.072-2.578-3.457-4.962-4.374-7.52-.565-1.563-.772-2.78-.68-3.927a2.92 2.92 0 0 1 .838-1.863l2.072-2.14c.297-.288.613-.444.923-.444.383 0 .693.238.887.439l.018.018c.37.358.723.728 1.094 1.123.188.2.383.402.577.609l1.659 1.712c.644.665.644 1.28 0 1.944-.177.182-.347.364-.523.54-.51.54-.996 1.041-1.525 1.53-.012.013-.024.02-.03.032-.523.54-.426 1.066-.316 1.424l.018.056c.431 1.079 1.039 2.095 1.962 3.306l.007.006c1.676 2.132 3.444 3.795 5.395 5.068.249.163.504.295.747.42.219.113.425.22.601.333.025.012.049.03.073.043.207.107.401.157.602.157.504 0 .82-.326.923-.432l2.078-2.146c.206-.213.535-.47.917-.47.377 0 .687.245.875.458l.012.012 3.348 3.456c.626.64.626 1.299.006 1.964zM15.623 6.5a7.104 7.104 0 0 1 3.865 2.006 7.142 7.142 0 0 1 2.006 3.866c.062.37.381.628.745.628.045 0 .084-.006.129-.011a.757.757 0 0 0 .622-.874 8.642 8.642 0 0 0-2.426-4.679 8.64 8.64 0 0 0-4.678-2.426.76.76 0 0 0-.874.616.748.748 0 0 0 .61.875zM28.987 13.028a15.818 15.818 0 0 0-4.442-8.57A15.809 15.809 0 0 0 15.977.012a.838.838 0 0 0-.966.685.846.846 0 0 0 .692.973c2.903.492 5.552 1.87 7.658 3.97a14.123 14.123 0 0 1 3.969 7.66.836.836 0 0 0 .828.699c.05 0 .094-.006.144-.012a.826.826 0 0 0 .685-.96z"/></g></svg>