<svg width="23" height="33" xmlns="http://www.w3.org/2000/svg"><g fill="#FFF" fill-rule="nonzero"><path d="M11.5 0C5.159 0 0 5.204 0 11.602c0 2.16.593 4.27 1.717 6.1l9.128 14.841a.956.956 0 0 0 .815.457h.007a.957.957 0 0 0 .815-.47l8.896-14.985A11.665 11.665 0 0 0 23 11.602C23 5.204 17.841 0 11.5 0zm8.233 16.553l-8.088 13.623-8.3-13.493a9.72 9.72 0 0 1-1.441-5.081c0-5.331 4.312-9.681 9.596-9.681s9.59 4.35 9.59 9.68c0 1.749-.474 3.46-1.357 4.952z"/><path d="M12 6c-3.308 0-6 2.692-6 6 0 3.287 2.648 6 6 6 3.394 0 6-2.749 6-6 0-3.308-2.692-6-6-6zm0 10.013A4.016 4.016 0 0 1 7.987 12 4.027 4.027 0 0 1 12 7.987c2.206 0 4.007 1.807 4.007 4.013 0 2.179-1.755 4.013-4.007 4.013z"/></g></svg>